<svg xmlns="http://www.w3.org/2000/svg" width="21" height="27" viewBox="0 0 21 27" fill="none">
  <path d="M13.5 3.375C13.5 1.51084 11.9892 0 10.125 0C8.26084 0 6.75 1.51084 6.75 3.375C4.88584 3.375 3.375 4.88584 3.375 6.75V7.59375C3.375 8.05781 3.75258 8.4375 4.21875 8.4375H16.0312C16.4953 8.4375 16.875 8.05781 16.875 7.59375V6.75C16.875 4.88584 15.3615 3.375 13.5 3.375ZM10.125 4.64062C9.42363 4.64062 8.85937 4.07373 8.85937 3.375C8.85937 2.67574 9.42627 2.10938 10.125 2.10938C10.8237 2.10938 11.3906 2.67574 11.3906 3.375C11.3906 4.07373 10.8264 4.64062 10.125 4.64062ZM12.9252 13.1414L9.1009 18.0077L7.15078 16.3371C6.61816 15.8836 5.82187 15.9416 5.36836 16.4742C4.91353 17.0047 4.97449 17.8042 5.50515 18.2587L8.45828 20.79C8.68535 20.9408 8.98066 21.0938 9.23379 21.0938C9.27499 21.0938 9.31616 21.0921 9.3574 21.0872C9.70101 21.0542 10.0155 20.8812 10.2291 20.6093L14.8697 14.703C15.3015 14.1541 15.2059 13.3583 14.6563 12.9264C14.1539 12.4506 13.3576 12.593 12.9252 13.1414Z" fill="#285943"/>
  <path d="M17.7188 3.375H13.5C15.3642 3.375 16.875 4.88584 16.875 6.75V7.59375C16.875 8.05781 16.4953 8.4375 16.0312 8.4375H4.21875C3.75258 8.4375 3.375 8.05781 3.375 7.59375V6.75C3.375 4.88584 4.88584 3.375 6.75 3.375H2.53125C1.13326 3.375 0 4.50826 0 5.90625V24.4688C0 25.8662 1.13326 27 2.53125 27H17.7188C19.1167 27 20.25 25.8667 20.25 24.4688V5.90625C20.25 4.50826 19.1162 3.375 17.7188 3.375ZM14.9186 14.7023L10.2779 20.6086C10.0645 20.8805 9.74953 21.0536 9.40623 21.0865C9.36562 21.0463 9.32344 21.0938 9.23379 21.0938C8.93305 21.0938 8.64053 20.9866 8.41008 20.7889L5.45695 18.2576C4.92645 17.8028 4.86527 17.0036 5.32016 16.4731C5.77415 15.9426 6.57366 15.8814 7.10469 16.3363L9.05481 18.0075L12.8791 13.1411C13.3109 12.5906 14.1078 12.4967 14.6563 12.9269C15.2561 13.3576 15.351 14.1539 14.9186 14.7023Z" fill="#8ED696"/>
</svg>