<svg xmlns="http://www.w3.org/2000/svg" width="21" height="21" viewBox="0 0 21 21" fill="none">
  <path d="M17.6523 2.46159C18.1819 1.82415 18.0976 0.877348 17.4601 0.347704C16.8227 -0.18194 15.8759 -0.0975721 15.3463 0.539876L9 8.15644L2.65373 0.539876C2.12409 -0.0975721 1.17731 -0.18194 0.539869 0.347704C-0.0975707 0.877348 -0.181938 1.82415 0.347699 2.46159L7.0455 10.5L0.347699 18.5384C-0.181938 19.1759 -0.0975707 20.1227 0.539869 20.6523C1.17731 21.1819 2.12409 21.0976 2.65373 20.4601L9 12.8436L15.3463 20.4601C15.8759 21.0976 16.8227 21.1819 17.4601 20.6523C18.0976 20.1227 18.1819 19.1759 17.6523 18.5384L10.9545 10.5L17.6523 2.46159Z" fill="#212b36"/>
</svg>