<svg xmlns="http://www.w3.org/2000/svg" width="43" height="43" viewBox="0 0 43 43" fill="none">
  <path d="M13.3006 23.6115C12.0452 23.6115 11.0352 22.6212 11.0352 21.3903C11.0352 20.1593 12.0452 19.169 13.3006 19.169H19.3418V13.2457C19.3418 12.0147 20.3519 11.0244 21.6073 11.0244C22.8627 11.0244 23.8728 12.0147 23.8728 13.2457V19.169H29.914C31.1694 19.169 32.1794 20.1593 32.1794 21.3903C32.1794 22.6212 31.1694 23.6115 29.914 23.6115H23.8728V29.5349C23.8728 30.7658 22.8627 31.7561 21.6073 31.7561C20.3519 31.7561 19.3418 30.7658 19.3418 29.5349V23.6115H13.3006Z" fill="#8C8895"/>
</svg>