<svg xmlns="http://www.w3.org/2000/svg" width="12" height="12" viewBox="0 0 12 12" fill="none">
  <g clip-path="url(#clip0_1341_5981)">
    <path d="M8.50062 0.452332L7.36624 1.58671L10.4131 4.63358L11.5475 3.49921C12.1334 2.91327 12.1334 1.96405 11.5475 1.37811L10.6241 0.452332C10.0381 -0.133606 9.0889 -0.133606 8.50296 0.452332H8.50062ZM6.83656 2.11639L1.37328 7.58202C1.12953 7.82577 0.9514 8.12811 0.852963 8.45858L0.0232751 11.2781C-0.0353187 11.4773 0.0185876 11.6906 0.1639 11.8359C0.309213 11.9812 0.522494 12.0351 0.719369 11.9789L3.5389 11.1492C3.86937 11.0508 4.17171 10.8726 4.41546 10.6289L9.88343 5.16327L6.83656 2.11639Z" fill="#285943"/>
  </g>
  <defs>
    <clipPath id="clip0_1341_5981">
      <rect width="12" height="12" fill="white"/>
    </clipPath>
  </defs>
</svg>