<svg xmlns="http://www.w3.org/2000/svg" width="24" height="24" viewBox="0 0 24 24" fill="none">
  <path d="M12 0C5.37188 0 0 5.37188 0 12C0 18.6281 5.37188 24 12 24C18.6281 24 24 18.6281 24 12C24 5.37188 18.6281 0 12 0ZM12 21.75C6.62344 21.75 2.25 17.3761 2.25 12C2.25 6.62391 6.62344 2.25 12 2.25C17.3766 2.25 21.75 6.62391 21.75 12C21.75 17.3761 17.3766 21.75 12 21.75Z" fill="#418265"/>
  <path d="M16.701 6.26703C16.2271 5.86493 15.516 5.92498 15.1152 6.39959L11.8494 10.2561L8.58226 6.39828C8.18382 5.92484 7.47132 5.8639 6.99789 6.26703C6.52445 6.66547 6.46351 7.37797 6.86664 7.8514L10.3776 11.9998L6.86757 16.1483C6.46623 16.6222 6.52553 17.3328 7.00014 17.7341C7.20882 17.9108 7.46664 17.9998 7.68226 17.9998C8.00157 17.9998 8.31929 17.8643 8.54195 17.6014L11.8494 13.7436L15.1152 17.6033C15.337 17.8639 15.6557 17.9998 15.9744 17.9998C16.2308 17.9998 16.4891 17.9127 16.7001 17.734C17.1744 17.3326 17.234 16.6221 16.8326 16.1482L13.3213 11.9998L16.8313 7.8514C17.2354 7.37797 17.1744 6.66547 16.701 6.26703Z" fill="#8ED696"/>
</svg>