<svg xmlns="http://www.w3.org/2000/svg" width="24" height="24" viewBox="0 0 24 24" fill="none">
  <path d="M24 12C24 18.6281 18.6281 24 12 24C5.37188 24 0 18.6281 0 12C0 5.37188 5.37188 0 12 0C18.6281 0 24 5.37188 24 12ZM12 2.25C6.61406 2.25 2.25 6.61406 2.25 12C2.25 17.3859 6.61406 21.75 12 21.75C17.3859 21.75 21.75 17.3859 21.75 12C21.75 6.61406 17.3859 2.25 12 2.25Z" fill="#418265"/>
  <path d="M11.2395 16.0395C10.7285 16.5504 9.89414 16.5504 9.3832 16.0395L6.3832 13.0395C5.87227 12.5286 5.87227 11.6942 6.3832 11.1833C6.89414 10.6723 7.72852 10.6723 8.23945 11.1833L10.3113 13.2551L15.3832 8.18325C15.8941 7.67231 16.7285 7.67231 17.2395 8.18325C17.7504 8.69419 17.7504 9.52856 17.2395 10.0395L11.2395 16.0395Z" fill="#8ED696"/>
</svg>