<svg xmlns="http://www.w3.org/2000/svg" width="24" height="24" viewBox="0 0 24 24" fill="none">
  <path d="M12 0C5.37188 0 0 5.37188 0 12C0 18.6281 5.37188 24 12 24C18.6281 24 24 18.6281 24 12C24 5.37188 18.6281 0 12 0ZM12 21.75C6.62344 21.75 2.25 17.3761 2.25 12C2.25 6.62391 6.62344 2.25 12 2.25C17.3766 2.25 21.75 6.62391 21.75 12C21.75 17.3761 17.3766 21.75 12 21.75Z" fill="#418265"/>
  <path d="M11.9258 15.1499C11.082 15.1499 10.4258 15.8062 10.4258 16.6499C10.4258 17.4937 11.0398 18.1499 11.9258 18.1499C12.7273 18.1499 13.4258 17.4937 13.4258 16.6499C13.4258 15.8062 12.7273 15.1499 11.9258 15.1499ZM13.4773 5.3999H11.082C9.25391 5.3999 7.80078 6.85303 7.80078 8.68115C7.80078 9.29053 8.31641 9.80615 8.92578 9.80615C9.53516 9.80615 10.0508 9.29053 10.0508 8.68115C10.0508 8.11865 10.4773 7.6499 11.0398 7.6499H13.4352C14.0398 7.6499 14.5508 8.11865 14.5508 8.68115C14.5508 9.05615 14.3633 9.34209 14.0352 9.52959L11.3633 11.1655C10.9883 11.3999 10.8008 11.7749 10.8008 12.1499V12.8999C10.8008 13.5093 11.3164 14.0249 11.9258 14.0249C12.5352 14.0249 13.0508 13.5093 13.0508 12.8999V12.8062L15.1648 11.4937C16.1492 10.8843 16.7586 9.80615 16.7586 8.68115C16.8008 6.85303 15.3477 5.3999 13.4773 5.3999Z" fill="#8ED696"/>
</svg>