<svg xmlns="http://www.w3.org/2000/svg" width="25" height="25" viewBox="0 0 25 25" fill="none">
<path d="M7.58929 13.8393C6.8471 13.8393 6.25 13.2422 6.25 12.5C6.25 11.7578 6.8471 11.1607 7.58929 11.1607H11.1607V7.58929C11.1607 6.8471 11.7578 6.25 12.5 6.25C13.2422 6.25 13.8393 6.8471 13.8393 7.58929V11.1607H17.4107C18.1529 11.1607 18.75 11.7578 18.75 12.5C18.75 13.2422 18.1529 13.8393 17.4107 13.8393H13.8393V17.4107C13.8393 18.1529 13.2422 18.75 12.5 18.75C11.7578 18.75 11.1607 18.1529 11.1607 17.4107V13.8393H7.58929Z" fill="#418265"/>
<path d="M21.4286 0C23.3984 0 25 1.59877 25 3.57143V21.4286C25 23.3984 23.3984 25 21.4286 25H3.57143C1.59877 25 0 23.3984 0 21.4286V3.57143C0 1.59877 1.59877 0 3.57143 0H21.4286ZM12.5 18.75C13.2422 18.75 13.8393 18.1529 13.8393 17.4107V13.8393H17.4107C18.1529 13.8393 18.75 13.2422 18.75 12.5C18.75 11.7578 18.1529 11.1607 17.4107 11.1607H13.8393V7.58929C13.8393 6.8471 13.2422 6.25 12.5 6.25C11.7578 6.25 11.1607 6.8471 11.1607 7.58929V11.1607H7.58929C6.8471 11.1607 6.25 11.7578 6.25 12.5C6.25 13.2422 6.8471 13.8393 7.58929 13.8393H11.1607V17.4107C11.1607 18.1529 11.7578 18.75 12.5 18.75Z" fill="#8ED696"/>
</svg>