<svg xmlns="http://www.w3.org/2000/svg" width="26" height="23" viewBox="0 0 26 23" fill="none">
<path d="M22.75 0C24.5426 0 26 1.47087 26 3.28571V9.85714H0V3.28571C0 1.47087 1.45488 0 3.25 0H22.75ZM4.875 6.57143C5.77383 6.57143 6.5 5.83728 6.5 4.92857C6.5 4.01987 5.77383 3.28571 4.875 3.28571C3.9777 3.28571 3.25 4.01987 3.25 4.92857C3.25 5.83728 3.9777 6.57143 4.875 6.57143ZM9.75 3.28571C8.85117 3.28571 8.125 4.01987 8.125 4.92857C8.125 5.83728 8.85117 6.57143 9.75 6.57143C10.6488 6.57143 11.375 5.83728 11.375 4.92857C11.375 4.01987 10.6488 3.28571 9.75 3.28571ZM14.625 6.57143C15.5238 6.57143 16.25 5.83728 16.25 4.92857C16.25 4.01987 15.5238 3.28571 14.625 3.28571C13.7262 3.28571 13 4.01987 13 4.92857C13 5.83728 13.7262 6.57143 14.625 6.57143Z" fill="#E5E8EB"/>
<path d="M11.375 4.9285C11.375 5.83721 10.6488 6.57136 9.75 6.57136C8.85117 6.57136 8.125 5.83721 8.125 4.9285C8.125 4.0198 8.85117 3.28564 9.75 3.28564C10.6488 3.28564 11.375 4.0198 11.375 4.9285ZM26 19.7142C26 21.5265 24.5426 22.9999 22.75 22.9999H3.25C1.45488 22.9999 0 21.5265 0 19.7142V9.85707H26V19.7142ZM13 4.9285C13 4.0198 13.7262 3.28564 14.625 3.28564C15.5238 3.28564 16.25 4.0198 16.25 4.9285C16.25 5.83721 15.5238 6.57136 14.625 6.57136C13.7262 6.57136 13 5.83721 13 4.9285Z" fill="#BCB8C5"/>
</svg>