<svg xmlns="http://www.w3.org/2000/svg" width="20" height="27" viewBox="0 0 20 27" fill="none">
<path d="M10 0C7.82292 0 5.96875 1.40801 5.28646 3.375H3.33333C1.49479 3.375 0 4.88848 0 6.75V23.625C0 25.4865 1.49479 27 3.33333 27H16.6667C18.5052 27 20 25.4865 20 23.625V6.75C20 4.88848 18.5052 3.375 16.6667 3.375H14.7135C14.0312 1.40801 12.1771 0 10 0ZM10 6.75C9.07812 6.75 8.33333 5.9959 8.33333 5.0625C8.33333 4.1291 9.07812 3.375 10 3.375C10.9219 3.375 11.6667 4.1291 11.6667 5.0625C11.6667 5.9959 10.9219 6.75 10 6.75ZM16.0312 14.5441L9.36458 21.2941C8.79688 21.8689 7.86979 21.8689 7.30208 21.2941L3.96875 17.9191C3.40104 17.3443 3.40104 16.4057 3.96875 15.8309C4.53646 15.2561 5.46354 15.2561 6.03125 15.8309L8.33333 18.1617L13.9688 12.4559C14.5365 11.8811 15.4635 11.8811 16.0312 12.4559C16.599 13.0307 16.599 13.9693 16.0312 14.5441Z" fill="white" fill-opacity="0.8"/>
</svg>